<?xml version="1.0" encoding="UTF-8"?>
<svg width="50px" height="50px" viewBox="0 0 50 50" version="1.1" xmlns="http://www.w3.org/2000/svg" xmlns:xlink="http://www.w3.org/1999/xlink">
    <!-- Generator: Sketch 59 (86127) - https://sketch.com -->
    <title>引导箭头@2x</title>
    <desc>Created with Sketch.</desc>
    <g id="应用市场-20201214" stroke="none" stroke-width="1" fill="none" fill-rule="evenodd">
        <g id="应用市场移动端-首页-微信等引导页" transform="translate(-302.000000, -79.000000)" fill="#FFFFFF" fill-rule="nonzero">
            <path d="M350.400339,79 L352,90.9129644 L347.554716,89.3595669 C343.043069,99.0805976 335.55305,106.845542 327.836894,110.328524 C326.534339,110.916481 325.263236,111.363722 324.037542,111.670338 C319.025626,118.364859 311.883554,124.140409 302.619987,129 L302.619987,129 L302,127.772262 C310.521324,123.302046 317.189912,118.061973 322.012901,112.054526 C316.702764,112.7275 312.489626,110.505579 310.677934,105.397572 C308.062105,98.0223292 315.381177,89.8058821 321.821355,90.6599125 C328.520751,91.5483177 331.107762,100.515304 326.384405,108.216418 C326.047494,108.765729 325.697469,109.309383 325.334336,109.847382 L325.334336,109.847382 L325.815741,109.673962 C326.299591,109.493238 326.790694,109.290597 327.2883,109.065984 C334.661331,105.737885 341.881232,98.2738183 346.264391,88.9100073 L341.967099,87.4080841 L350.400339,79 Z M321.646563,92.0291862 C316.170532,91.3030111 309.697003,98.5702449 311.952003,104.928142 C313.670256,109.772698 317.853113,111.642317 323.248428,110.443727 L323.248428,110.443727 L323.77096,109.714614 C324.284913,108.981935 324.773135,108.238555 325.235635,107.484479 C329.487019,100.552886 327.241969,92.7711914 321.646563,92.0291862 Z" id="引导箭头"></path>
        </g>
    </g>
</svg>